<svg version="1.1" xmlns="http://www.w3.org/2000/svg" xmlns:xlink="http://www.w3.org/1999/xlink"
	fill="#A6A6A6" viewBox="0 0 85.6 23.3" style="enable-background:new 0 0 85.6 23.3;"
	xml:space="preserve">
<path d="M82.4,17.1h-2.5c-0.5,0-0.9-0.3-0.9-0.8c0-0.5,0.4-0.8,0.9-0.8h4.5l1-2.3h-5.6c-2.3,0-3.6,1.4-3.6,3.2
	c0,1.9,1.3,3,3.3,3H82c0.5,0,0.9,0.3,0.9,0.8c0,0.4-0.3,0.8-0.9,0.8h-5.5v2.3H82c2.3,0,3.6-1.4,3.6-3.3S84.4,17.1,82.4,17.1z
	 M72.3,17.1h-2.5c-0.5,0-0.9-0.3-0.9-0.8c0-0.5,0.4-0.8,0.9-0.8h4.5l1-2.3h-5.6c-2.3,0-3.6,1.4-3.6,3.2c0,1.9,1.3,3,3.3,3H72
	c0.5,0,0.9,0.3,0.9,0.8c0,0.4-0.3,0.8-0.9,0.8h-5.5v2.3H72c2.3,0,3.6-1.4,3.6-3.3C75.7,18.1,74.5,17.1,72.3,17.1z M56.5,23.3h8.6V21
	h-5.8v-1.6H65v-2.3h-5.7v-1.6h5.8v-2.3h-8.6V23.3z M51.2,17.5h-2.8v-2.1h2.8c0.8,0,1.2,0.5,1.2,1C52.4,17.1,51.9,17.5,51.2,17.5z
	 M55.1,16.4c0-2-1.4-3.3-3.6-3.3h-5.9v10.2h2.7v-3.5h1l3.1,3.5h3.3l-3.3-3.7C54.1,19.2,55.1,18,55.1,16.4z M40.5,17.7h-2.9v-2.2h2.9
	c0.8,0,1.2,0.5,1.2,1.1S41.3,17.7,40.5,17.7z M40.8,13.1h-5.9v10.2h2.7V20h3.2c2.3,0,3.7-1.5,3.7-3.4C44.4,14.5,43,13.1,40.8,13.1z
	 M34.4,13.1h-3.5l-2.6,3.1l-2.7-3.1H22l4.5,5.1l-4.6,5.1h3.5l2.7-3.3l2.7,3.3h3.6l-4.6-5.2L34.4,13.1z M13,23.3h8.6V21h-5.9v-1.6
	h5.7v-2.3h-5.7v-1.6h5.9v-2.3H13V23.3z M81.3,6.3l-4.2-6.2h-3.4v10.1h2.7V3.8l4.3,6.4H84V0.1h-2.7V6.3z M65.6,5.9L67,2.5l1.5,3.4
	H65.6z M65.2,0.1l-4.5,10.2h3l0.9-2.1h4.7l0.9,2.1h3.1L68.7,0.1H65.2z M56.3,5.3V5.1c0-1.5,0.9-2.6,2.6-2.6h3V0h-3.3
	c-3.3,0-5.1,2.1-5.1,5v0.2c0,3.2,2,5,5,5h0.9l1.1-2.3H59C57.3,7.9,56.3,7,56.3,5.3z M49.5,0.1v10.1h2.7V0.1H49.5z M44.1,4.4h-2.8
	V2.3h2.8c0.8,0,1.2,0.5,1.2,1C45.3,4,44.9,4.4,44.1,4.4z M48.1,3.4c0-2-1.4-3.3-3.6-3.3h-5.9v10.2h2.7V6.7h1l3.1,3.5h3.3l-3.4-3.7
	C47.1,6.2,48.1,4.9,48.1,3.4z M28.2,10.2h8.6V7.9h-5.8V6.3h5.7V4h-5.7V2.3h5.8V0.1h-8.6V10.2z M19.5,6.5l-2.3-6.3H13v10.1h2.7V2.9
	l2.7,7.3h2.4l2.7-7.3v7.3h2.7V0.1h-4.3L19.5,6.5z M4.8,5.9l1.5-3.4l1.5,3.4H4.8z M4.5,0.1L0,10.2h3l0.9-2.1h4.7l0.9,2.1h3.1L8,0.1
	H4.5z"/>
</svg>
