<svg xmlns="http://www.w3.org/2000/svg" id="Layer_1" data-name="Layer 1" viewBox="0 0 2000 498.16"><defs><style>.cls-1{fill:#a6a6a6}</style></defs><path d="M1955 846.88a44.67 44.67 0 1 0-45-44.66 44.82 44.82 0 0 0 45 44.66m0-82.79a38.13 38.13 0 1 1-37.79 38.13 38.11 38.11 0 0 1 37.79-38.13" class="cls-1" transform="translate(0 -750.92)"/><path d="M1947.17 806.66h7.45l11.32 20h8l-11.81-20.86c6.09-1.85 10.57-6.29 10.57-13.44 0-8.27-7-14.68-15.54-14.68h-16.78v49h6.84zm0-22.95h9.19c5.47 0 9.33 3.7 9.33 8.64s-3.86 8.51-9.33 8.51h-9.19zM161.87 921c-33.05 0-67.45 13.39-87.68 33.48l-3.37 3.35-4 4.41V750.92H0v491.47h66.77v-35l4 4.82 3.37 3.35c20.23 20.08 54 33.47 87.68 33.47 87.69 0 161.88-66.95 161.88-164S249.56 921 161.87 921m-3.37 267.79c-57.33 0-97.8-46.86-97.8-103.77s40.47-103.72 97.8-103.72c64.08 0 97.8 46.86 97.8 103.76s-33.72 103.77-97.8 103.77M566.56 1118.53c-2 38.83-35.07 70.3-74.19 70.3-45.19 0-66.1-24.1-67.45-66.95V927.74h-67.45v194.14c0 73.64 47.22 127.2 128.15 127.2 27 0 60.71-13.39 74.2-33.47l3.37-4.4 3.37-4.58v35.75H634V927.74h-67.44zM1517.59 921.05c-87.69 0-155.13 66.94-155.13 164s70.82 164 155.13 164c64.07 0 111.29-33.47 138.27-80.34L1599.2 1142c-10.11 26.77-37.77 46.86-78.24 46.86-57.33 0-91.06-40.17-91.06-87H1666v-20.08c0-97.08-67.44-160.67-148.38-160.67m-84.31 121.84c10.12-34.81 37.1-61.59 84.31-61.59 40.47 0 74.19 26.78 77.56 61.59zM1851.46 921.05c-87.69 0-155.13 66.94-155.13 164s70.82 164 155.13 164c64.07 0 111.29-33.47 138.27-80.34l-56.66-26.71c-10.11 26.77-37.77 46.86-78.24 46.86-57.33 0-91.06-40.17-91.06-87h236l.09-20.08c0-97.08-67.45-160.67-148.38-160.67m-84.31 121.84c10.12-34.81 37.1-61.59 84.31-61.59 40.47 0 74.19 26.78 77.56 61.59zM1180.35 921c-33 0-67.45 13.39-87.69 33.48l-3.37 3.35-4 4.41V750.92h-66.76v491.47h66.76v-35l4 4.82 3.37 3.35c20.24 20.08 54 33.47 87.69 33.47 87.68 0 161.87-66.95 161.87-164S1268 921 1180.35 921m-3.35 267.83c-57.33 0-97.79-46.86-97.79-103.77S1119.64 981.3 1177 981.3c64.08 0 97.8 46.86 97.8 103.76s-33.72 103.77-97.8 103.77M661 1085.06c0 97.07 74.2 164 161.88 164 33.72 0 67.45-13.39 87.68-33.47l3.37-3.35 4.05-4.82v34.94h66.77V750.92H918v211.36l-4.05-4.41-3.37-3.35c-20.23-20.09-54.63-33.47-87.68-33.47-87.68 0-161.88 66.94-161.88 164m67.45 0c0-56.9 33.72-103.76 97.8-103.76 57.33 0 97.8 46.86 97.8 103.76s-40.47 103.77-97.8 103.77c-64.08 0-97.8-46.86-97.8-103.77" class="cls-1" transform="translate(0 -750.92)"/></svg>