<svg id="Ebene_1" data-name="Ebene 1" xmlns="http://www.w3.org/2000/svg" viewBox="0 0 175.748 24.854"><defs><style>.cls-1{fill:#a7a7a7;}</style></defs><title>DHL-Gray</title><path class="cls-1" d="M56.665,16.206c-.768,1.04-2.053,2.848-2.835,3.9-.4.537-1.114,1.512,1.263,1.512H67.608s2.017-2.744,3.708-5.039c2.3-3.122.2-9.618-8.024-9.618H30.908l-5.615,7.629H55.9C57.441,14.594,57.42,15.182,56.665,16.206Zm-9.194,7.3c-2.377,0-1.66-.977-1.263-1.514.782-1.056,2.088-2.845,2.856-3.885.756-1.024.776-1.612-.771-1.612h-14L23.02,31.819h27.5c9.083,0,14.14-6.178,15.7-8.314Zm17.89,8.315H81.494L87.61,23.5l-16.131,0S65.361,31.819,65.361,31.819ZM106.986,6.965l-6.188,8.4H93.6l6.185-8.4H83.655L72.865,21.622h39.46L123.112,6.965ZM88.694,31.819h16.127l6.119-8.314H94.813C94.807,23.5,88.694,31.819,88.694,31.819ZM0,26.784V28.55H22.468l1.3-1.766ZM26.181,23.5H0v1.764H24.88ZM0,31.819H20.061l1.292-1.756H0Zm152.072-3.27h23.676V26.783H153.372Zm-2.405,3.27h26.081V30.063h-24.79Zm6.116-8.315-1.3,1.766h21.262V23.5Zm-21.124-1.882L145.448,6.965H128.367c-.006,0-10.8,14.657-10.8,14.657ZM116.187,23.5s-1.179,1.611-1.752,2.387c-2.025,2.736-.234,5.928,6.376,5.928h25.9l6.119-8.314H116.187Z" transform="translate(0 -6.965)"/></svg>