<svg version="1.1" xmlns="http://www.w3.org/2000/svg" fill="#A6A6A6"
	xmlns:xlink="http://www.w3.org/1999/xlink" viewBox="0 0 650.2 130" xml:space="preserve">
<path d="M307.1,90.2V67.3c0-8.8-5.3-14.5-14.5-14.5c-4.6,0-9.6,1.5-13,6.5c-2.7-4.2-6.5-6.5-12.3-6.5
	c-3.8,0-7.7,1.2-10.7,5.3v-4.6h-8v36.7h8V70c0-6.5,3.4-9.6,8.8-9.6c5.3,0,8,3.4,8,9.6v20.3h8V70c0-6.5,3.8-9.6,8.8-9.6
	c5.3,0,8,3.4,8,9.6v20.3H307.1z M426.1,53.5h-13V42.4h-8v11.1h-7.3v7.3h7.3v16.8c0,8.4,3.4,13.4,12.6,13.4c3.4,0,7.3-1.2,9.9-2.7
	l-2.3-6.9c-2.3,1.5-5,1.9-6.9,1.9c-3.8,0-5.3-2.3-5.3-6.1V60.8h13L426.1,53.5L426.1,53.5z M494.2,52.7c-4.6,0-7.7,2.3-9.6,5.3v-4.6
	h-8v36.7h8V69.5c0-6.1,2.7-9.6,7.7-9.6c1.5,0,3.4,0.4,5,0.8l2.3-7.7C498,52.7,495.7,52.7,494.2,52.7z M391.3,56.6
	c-3.8-2.7-9.2-3.8-14.9-3.8c-9.2,0-15.3,4.6-15.3,11.9c0,6.1,4.6,9.6,12.6,10.7l3.8,0.4c4.2,0.8,6.5,1.9,6.5,3.8
	c0,2.7-3.1,4.6-8.4,4.6c-5.3,0-9.6-1.9-12.3-3.8l-3.8,6.1c4.2,3.1,9.9,4.6,15.7,4.6c10.7,0,16.8-5,16.8-11.9c0-6.5-5-9.9-12.6-11.1
	l-3.8-0.4c-3.4-0.4-6.1-1.2-6.1-3.4c0-2.7,2.7-4.2,6.9-4.2c4.6,0,9.2,1.9,11.5,3.1L391.3,56.6z M604.7,52.7c-4.6,0-7.7,2.3-9.6,5.3
	v-4.6h-8v36.7h8V69.5c0-6.1,2.7-9.6,7.7-9.6c1.5,0,3.4,0.4,5,0.8l2.3-7.6C608.5,52.7,606.2,52.7,604.7,52.7z M502.2,71.9
	c0,11.1,7.7,19.1,19.5,19.1c5.3,0,9.2-1.2,13-4.2l-3.8-6.5c-3.1,2.3-6.1,3.4-9.6,3.4c-6.5,0-11.1-4.6-11.1-11.9
	c0-6.9,4.6-11.5,11.1-11.9c3.4,0,6.5,1.2,9.6,3.4l3.8-6.5c-3.8-3.1-7.7-4.2-13-4.2C509.8,52.7,502.2,60.8,502.2,71.9z M576.4,71.9
	V53.5h-8v4.6c-2.7-3.4-6.5-5.3-11.5-5.3c-10.3,0-18.4,8-18.4,19.1s8,19.1,18.4,19.1c5.3,0,9.2-1.9,11.5-5.3v4.6h8V71.9z M546.9,71.9
	c0-6.5,4.2-11.9,11.1-11.9c6.5,0,11.1,5,11.1,11.9c0,6.5-4.6,11.9-11.1,11.9C551.2,83.3,546.9,78.3,546.9,71.9z M450.9,52.7
	c-10.7,0-18.4,7.7-18.4,19.1c0,11.5,7.7,19.1,18.8,19.1c5.3,0,10.7-1.5,14.9-5l-3.8-5.7c-3.1,2.3-6.9,3.8-10.7,3.8
	c-5,0-9.9-2.3-11.1-8.8h27.1c0-1.2,0-1.9,0-3.1C468.1,60.4,461.2,52.7,450.9,52.7z M450.9,59.6c5,0,8.4,3.1,9.2,8.8H441
	C441.8,63.5,445.2,59.6,450.9,59.6z M650.2,71.9V39h-8v19.1c-2.7-3.4-6.5-5.3-11.5-5.3c-10.3,0-18.4,8-18.4,19.1s8,19.1,18.4,19.1
	c5.3,0,9.2-1.9,11.5-5.3v4.6h8V71.9z M620.7,71.9c0-6.5,4.2-11.9,11.1-11.9c6.5,0,11.1,5,11.1,11.9c0,6.5-4.6,11.9-11.1,11.9
	C624.9,83.3,620.7,78.3,620.7,71.9z M352.3,71.9V53.5h-8v4.6c-2.7-3.4-6.5-5.3-11.5-5.3c-10.3,0-18.4,8-18.4,19.1s8,19.1,18.4,19.1
	c5.3,0,9.2-1.9,11.5-5.3v4.6h8V71.9z M322.5,71.9c0-6.5,4.2-11.9,11.1-11.9c6.5,0,11.1,5,11.1,11.9c0,6.5-4.6,11.9-11.1,11.9
	C326.6,83.3,322.5,78.3,322.5,71.9z"/>
<path d="M102.7,16c0.8-0.7,1.6-1.4,2.5-2c0.8,0.7,1.7,1.3,2.5,2C121.3,27.9,130,45.4,130,65c0,19.6-8.7,37.1-22.4,49
	c-0.8,0.7-1.6,1.4-2.5,2c-0.8-0.7-1.7-1.3-2.5-2C89,102.1,80.3,84.6,80.3,65C80.3,45.4,89,27.9,102.7,16z"/>
<path d="M109.4,10.9C119.6,4,132,0,145.3,0c35.9,0,65,29.1,65,65c0,35.9-29.1,65-65,65c-13.3,0-25.7-4-36-10.9
	c0.5-0.4,1.1-0.9,1.6-1.3C126.2,104.5,135,85.2,135,65c0-20.3-8.8-39.5-24.1-52.8C110.4,11.7,109.9,11.3,109.4,10.9z"/>
<path d="M101,119.1c-0.5-0.4-1.1-0.9-1.6-1.3C84.1,104.5,75.3,85.2,75.3,65c0-20.3,8.8-39.5,24.1-52.8
	c0.5-0.4,1-0.9,1.6-1.3C90.7,4,78.3,0,65,0C29.1,0,0,29.1,0,65c0,35.9,29.1,65,65,65C78.3,130,90.7,126,101,119.1z"/>
</svg>
