<?xml version="1.0" encoding="utf-8"?>
<!-- Generator: Adobe Illustrator 28.0.0, SVG Export Plug-In . SVG Version: 6.00 Build 0)  -->
<svg version="1.1" id="Logo" xmlns="http://www.w3.org/2000/svg" xmlns:xlink="http://www.w3.org/1999/xlink" x="0px" y="0px"
	 viewBox="0 0 960 247.1" style="enable-background:new 0 0 960 247.1;" xml:space="preserve">
<style type="text/css">
	.st0{fill:#A7A7A7;}
</style>
<g>
	<path class="st0" d="M347.6,150.6c28.9,0,53.5-21.1,57.9-49.7c4.5-28.8-18-54-49.9-54h-51.4c-2,0-3.7,1.4-4,3.4l-23,145.6
		c-0.4,2.3,1.4,4.3,3.7,4.3h27.2c2,0,3.7-1.4,4-3.4l6.7-42.7c0.3-2,2-3.4,4-3.4H347.6z M370.4,99.6c-1.7,10.7-9.9,18.5-25.7,18.5
		h-20.2l6.1-38.8h19.8C366.8,79.4,372.1,89,370.4,99.6z"/>
	<path class="st0" d="M523.5,92.8h-25.8c-2,0-3.7,1.4-4,3.4l-0.8,5.4l0,0c0,0-20.1-21.9-55.6-7.1c-20.4,8.5-30.2,26-34.3,38.8
		c0,0-13.2,39,16.7,60.5c0,0,27.7,20.6,58.9-1.3l-0.5,3.4c-0.4,2.3,1.4,4.3,3.7,4.3h25.8c2,0,3.7-1.4,4-3.4l15.7-99.7
		C527.6,94.8,525.8,92.8,523.5,92.8z M485.5,147.9c-2.3,14.3-14,24.8-29,24.8c-3,0-5.7-0.4-8.1-1.2l0,0
		c-11.1-3.6-17.5-14.3-15.7-25.9c2.3-14.3,14-24.8,29.1-24.8c3,0,5.7,0.4,8.1,1.2l0,0C481.1,125.5,487.4,136.3,485.5,147.9z"/>
	<path class="st0" d="M719.8,150.6c28.9,0,53.5-21.1,57.9-49.7c4.5-28.8-18-54-49.9-54h-51.4c-2,0-3.7,1.4-4,3.4l-23,145.6
		c-0.4,2.3,1.4,4.3,3.7,4.3h27.2c2,0,3.7-1.4,4-3.4L691,154c0.3-2,2-3.4,4-3.4H719.8z M742.5,99.6c-1.7,10.7-9.9,18.5-25.7,18.5
		h-20.2l6.1-38.8h19.8C738.9,79.4,744.2,89,742.5,99.6z"/>
	<path class="st0" d="M895.7,92.8h-25.8c-2,0-3.7,1.4-4,3.4l-0.8,5.4l0,0c0,0-20.1-21.9-55.6-7.1c-20.4,8.5-30.2,26-34.3,38.8
		c0,0-13.2,39,16.7,60.5c0,0,27.7,20.6,58.9-1.3l-0.5,3.4c-0.4,2.3,1.4,4.3,3.7,4.3h25.8c2,0,3.7-1.4,4-3.4l15.7-99.7
		C899.7,94.8,897.9,92.8,895.7,92.8z M857.7,147.9c-2.3,14.3-14,24.8-29,24.8c-3,0-5.7-0.4-8.1-1.2l0,0
		c-11.1-3.6-17.5-14.3-15.7-25.9c2.3-14.3,14-24.8,29.1-24.8c3,0,5.7,0.4,8.1,1.2l0,0C853.2,125.5,859.5,136.3,857.7,147.9z"/>
	<path class="st0" d="M618.4,95.2l-31.1,52.6l-15.8-52.2c-0.5-1.7-2.1-2.9-3.9-2.9h-28.1c-2,0-3.5,2-2.9,3.9l28.3,87.9l-25.6,41.4
		c-1.2,2,0.2,4.6,2.6,4.6h30.3c1.8,0,3.4-0.9,4.3-2.4l79.1-130.9c1.2-2-0.2-4.6-2.6-4.6h-30.3C620.9,92.8,619.3,93.7,618.4,95.2z"/>
	<path class="st0" d="M924.7,50.3l-23,145.6c-0.4,2.3,1.4,4.3,3.7,4.3h27.2c2,0,3.7-1.4,4-3.4l23-145.6c0.4-2.3-1.4-4.3-3.7-4.3
		h-27.2C926.7,46.9,925,48.3,924.7,50.3z"/>
	<g>
		<g>
			<path class="st0" d="M70.5,52.5c0.5-3.3,3.3-5.7,6.7-5.7h58.7c10.7,0,20.9,0.7,28.7,4.8c0.1-29.8-26.4-51.7-57-51.6h-71
				c-3.3,0.1-6.3,2.6-6.8,6.2l-29.6,187c-0.8,3.8,2.2,7.1,5.8,7.1l41.2,0L70.5,52.5z"/>
			<path class="st0" d="M72.6,121.7l8.9-56.1c0.5-3,2.1-5.9,6-5.9H137c9.4,0.1,19.3,0.9,26.7,4.8c0,2.1-0.2,5.5-0.6,7.7
				c-4.5,28.5-29,49.6-57.8,49.6L72.6,121.7z"/>
			<path class="st0" d="M175.7,71.2c-0.1,2.5-0.3,4.8-0.6,7.3c-5.1,32.3-33.2,56.1-65.8,56.1l-32.4,0c-3.6,0-6.7,2.6-7.3,6.2
				l-15.8,99.4c-0.6,3.6,2.2,6.9,5.9,6.9l34.7,0c3.7,0,6.6-2.7,7.2-6.1l8.6-53.9c0.5-3.3,3.3-5.7,6.7-5.7l20.6,0
				c32.7,0,60.8-23.8,65.8-56.1C207,102.4,195.5,81.5,175.7,71.2z"/>
			<path class="st0" d="M70.5,52.5c0.5-3.3,3.3-5.7,6.7-5.7h58.7c10.7,0,20.9,0.7,28.7,4.8c0.1-29.8-26.4-51.7-57-51.6h-71
				c-3.3,0.1-6.3,2.6-6.8,6.2l-29.6,187c-0.8,3.8,2.2,7.1,5.8,7.1l41.2,0L70.5,52.5z"/>
		</g>
	</g>
</g>
</svg>
