<svg xmlns="http://www.w3.org/2000/svg" id="Layer_1" data-name="Layer 1" viewBox="0 0 2000 377.1"><defs><style>.cls-1{fill:#a6a6a6}</style></defs><path d="M.19 885.12c27.19-.09 54.38-.09 81.57-.37 4.65 0 5.63 1.85 5.42 5.91-.26 4.69-.06 9.41-.06 14.4 1-.19 2-.07 2.47-.5 57.48-51 145.08-30.62 172.47 41.4 19.52 51.31 15.84 101.09-21.25 144.43-39.12 45.72-113.5 47.9-150.62 18.38-.58-.46-1.42-.59-3.35-1.35v81c-26.33 0-52.66-.19-79 .14-5.91.08-7.88-.79-7.86-7.44q.43-148.01.21-296zM84.93 1002c-.37 28.35 19.25 48.81 47.31 49.32 26.76.48 47.48-19.38 47.91-45.91.5-30.69-17.92-51.28-46.26-51.71-28.69-.42-48.58 19.2-48.96 48.3zM1999.83 1121.74c-24.37-1.61-48.77-.25-73.15-.69a50.58 50.58 0 0 0-7.49 0c-5.41.7-6.73-1.85-6.36-6.74.35-4.63.07-9.31.07-15.14-4.94 4.11-8.92 7.79-13.26 11-40.75 29.69-105.37 22.71-140-15-43.25-47.17-43-133-.53-180.58 38.58-43.19 112.31-48.59 150.89-17.87.55.45 1.42.5 2.91 1 0-20.91.32-41.35-.19-61.76-.16-6.24 2.23-8 7.64-9 23.14-4.3 46.23-8.94 69.34-13.45 1.33-.26 2.8-.15 3.47-1.72 5.7-1.26 6.84 1 6.83 6.67q-.34 151.65-.17 303.28zm-180-119.44c0 29 19.2 49.21 47 49.36 28.4.15 48.13-19.91 48.25-49.06.1-28.36-19.68-48.2-48-48.19-28.08.01-47.19 19.43-47.21 47.89zM1393.87 876.68c26.52.41 48.8 4.13 70 13.21 50 21.41 76.27 67 71.93 121.36-5.2 65-49.4 102.66-107.67 113.64-34.62 6.53-68.61 3.84-101.18-10-51.46-21.91-74.14-65.63-71.44-118.24 3.86-75 58.56-110.29 117-118.1 8.28-1.13 16.61-1.47 21.36-1.87zm-46.27 126.05c0 28.27 20.52 49 48 48.61 27.94-.41 47.32-20.18 47.35-48.29 0-29.31-19.55-49.45-48-49.33-27.9.11-47.36 20.22-47.35 49.01zM429 876.73c36.36.9 70.33 9.11 99 33 23.82 19.92 36.06 46 38.73 76.58 3 35-3.39 67.49-26.83 94.94-20.09 23.51-46.33 36.45-76.2 42.72-35.41 7.42-70.11 5.19-103.68-8.56-55.72-22.81-77.79-71.61-72.39-126.33 6-61.24 49.09-97.81 105.84-108.88a182.09 182.09 0 0 1 35.53-3.47zm-1.44 77c-28.4-.23-48.25 19.62-48.82 48.8-.53 27.43 20.51 48.75 48.13 48.77s47.57-20.12 47.88-48c.35-28.43-19.58-49.36-47.16-49.58zM1080.46 904c28.64-28 62.32-32.47 98.46-22.77 32.77 8.8 48.15 33.4 54.24 65.08a134.64 134.64 0 0 1 2.12 25.68c-.06 46.92-.14 93.85.1 140.77 0 6.25-1.22 8.64-8.11 8.51-23.86-.44-47.75-.38-71.63 0-6.46.09-8.49-1.58-8.45-8.3.17-39.14-.11-78.29-.35-117.43a64 64 0 0 0-1.18-11.55c-4.05-21.11-12.5-28.13-32.65-27.37-19.38.72-31.23 11.23-32.94 30.59-1.93 21.87-.54 43.85-.73 65.77-.18 20.27-.25 40.54.08 60.8.1 5.92-1.82 7.53-7.57 7.46q-36.64-.4-73.31 0c-5.35 0-7-1.35-7-6.94q.29-111.21 0-222.41c0-6.19 2.15-7.16 7.62-7.1 23.88.27 47.77.38 71.64-.05 7-.12 9.47 1.88 8.64 8.81-.39 3.06-.86 6.45 1.02 10.45zM702.45 876.94c29 1 55.47 3.24 81.55 9.35 5.48 1.29 6.53 3 5.16 8.36-4.44 17.45-8.61 35-12.2 52.63-1.34 6.6-3.75 6.8-9.46 5.09-27-8.07-54.44-13.26-82.83-9.12a47.46 47.46 0 0 0-6.43 1.57c-5.21 1.54-9.29 4.59-9.23 10.35.07 6 4.69 8.56 9.83 9.72 18.67 4.23 37.9 5.31 56.47 10.13a160.63 160.63 0 0 1 29 10c25.74 12.23 37.2 32.26 36.35 60.71-1 33.7-18.25 55.35-48.21 68.25-24.15 10.4-49.81 13-75.66 13.58a323.18 323.18 0 0 1-95.35-12.39c-5.08-1.44-6.46-3-5-8.48q7.66-27.63 14.15-55.59c1.41-6 3.55-6.44 9-4.36 28.75 11.06 58.36 17.55 89.43 15.23a35.83 35.83 0 0 0 12.1-2.77c4.29-1.91 7.32-4.86 7.27-10.11s-3.14-8.08-7.59-9.79c-9.68-3.71-20-4.53-30.1-5.86-17.64-2.32-35.08-5.5-51.65-12.16-47.91-19.27-57.87-80.92-18.6-114.93 21.58-18.67 47.92-24.71 75.26-27.73 9.66-1.03 19.4-1.23 26.74-1.68zM816.71 976c0-45.55.14-91.1-.16-136.65 0-6.32 1.65-7.81 7.82-7.72 24.15.38 48.32.43 72.48 0 6.63-.12 7.8 2.18 7.61 8.07-.4 12.76.16 25.55-.25 38.32-.18 5.72 1.93 7 7.2 6.93 21.94-.24 43.89 0 65.83-.19 5.77-.06 7.59.84 4.36 6.69q-17.08 30.93-33.6 62.2c-2 3.74-4.4 5-8.52 4.87-9.16-.28-18.35.33-27.48-.22-6.3-.39-7.86 1.59-7.83 7.83.27 48 .15 96.09.15 144.14 0 10.77 0 10.77-10.68 10.77-22.78 0-45.55-.28-68.32.17-6.84.14-8.85-1.53-8.8-8.58.34-45.54.19-91.09.19-136.63zM1643.51 910.13c20-26.86 46.44-30.42 75-28.22 5.19.4 7.7 2.39 7.47 8.29-.87 22.45-1.34 44.91-1.73 67.36-.09 5.32-1.76 6.68-7 5.32a90.71 90.71 0 0 0-30.54-2.5c-28.8 2.45-43 17.64-43.12 46.56-.15 35-.23 69.94.11 104.91.07 7-1.18 9.59-8.94 9.4-23.57-.58-47.18-.35-70.77-.11-5.35 0-7.81-.76-7.79-7.08q.33-111.16 0-222.32c0-5.35 1.35-7.09 6.89-7q37 .43 74.1 0c5.3-.06 6.75 1.69 6.4 6.67-.38 5.46-.08 11-.08 18.72z" class="cls-1" transform="translate(0 -811.45)"/></svg>