<svg xmlns="http://www.w3.org/2000/svg" viewBox="0 0 2022.98 667.2"><defs><style>.cls-1{fill:none}</style><clipPath id="clip-path" transform="translate(22.98 -668.71)"><path d="M607.1 1000.07c0 167.66-136 303.56-303.63 303.53A303.6 303.6 0 0 1 193 1282.77c132.59 41.72 273.89-31.94 315.62-164.53a251.67 251.67 0 0 0-80.4-270.08l67-83.31a302.89 302.89 0 0 1 111.88 235.22zm-463.93-199.3a251.74 251.74 0 0 1 282.72-78.54c-153.41-67.57-332.55 2-400.12 155.42A303.53 303.53 0 0 0 113 1236.29l66.83-82.89c-106.98-87.52-123.36-244.96-36.66-352.63z" class="cls-1"/></clipPath><linearGradient id="linear-gradient" x1="-610.25" x2="-97.38" y1="3515.33" y2="3515.33" gradientTransform="matrix(1 0 0 -1 645.89 4438.84)" gradientUnits="userSpaceOnUse"><stop offset="0" stop-color="#a6a6a6"/><stop offset=".13" stop-color="#ccc"/><stop offset=".51" stop-color="#f2f2f2"/><stop offset=".81" stop-color="#fafafa"/><stop offset="1" stop-color="#fff"/></linearGradient><clipPath id="clip-path-2" transform="translate(22.98 -668.71)"><path d="M607.1 1000.07c0 167.66-136 303.56-303.63 303.53A303.6 303.6 0 0 1 193 1282.77c132.59 41.72 273.89-31.94 315.62-164.53a251.67 251.67 0 0 0-80.4-270.08l67-83.31a302.89 302.89 0 0 1 111.88 235.22z" class="cls-1"/></clipPath><linearGradient id="linear-gradient-2" x1="-356.74" x2="-121.52" y1="3162.42" y2="3477.71" gradientTransform="matrix(1 0 0 -1 645.89 4438.84)" gradientUnits="userSpaceOnUse"><stop offset="0" stop-color="#fff"/><stop offset="1" stop-color="#a6a6a6"/></linearGradient></defs><path fill="#a6a6a6" d="M518 96a304 304 0 0 1-302 519 252 252 0 0 0 235-435M135 568A304 304 0 0 1 437 49a252 252 0 0 0-235 435"/><path fill="url(#linear-gradient)" d="M176.72 1150.58C70.62 1060.84 57.35 902.07 147.09 796a251.62 251.62 0 0 1 278.8-73.74C281.25 658.56 112 716.48 36.63 855.41c-.34 4.94-.62 9.9-.79 15.07-5.78 189.93 117.52 267.26 140.88 280.1z" opacity=".4" style="isolation:isolate" transform="translate(22.98 -668.71)"/><g clip-path="url(#clip-path-2)"><path fill="url(#linear-gradient-2)" d="M428.85 846.63s151 72.45 144.61 282.05c-1.3 42.72-29.74 66.54-48.57 90.31-14.45 18.17-82.63 64.54-136.34 80.23s-103.77 14.11-147.2 5.64-122.68-62.08-122.68-62.08z" opacity=".4" style="isolation:isolate" transform="translate(22.98 -668.71)"/></g><path fill="#a6a6a6" d="M796.5 422.6l5.65-8.32c7-9.74 14.87-10.64 26.44-4.63 11.12 6 28.73 16.17 52.83 16.17 20.43 0 32.91-9.26 32.91-24.1 0-38.47-117.29-24.08-117.29-105.21 0-46.34 40.81-71 90.31-71a131.41 131.41 0 0 1 65.78 17.16c10.64 5.64 12.11 15.29 7 25.93l-4.63 8.47c-5.64 11.15-14.33 12.53-26 7.42-10.25-4.63-25.57-11.6-44.93-11.6-20.46 0-32 8.47-32 23.17 0 38.95 117.26 23.65 117.26 104.42 0 41.69-35.31 72.76-89.92 72.76a138.57 138.57 0 0 1-79-24.13c-10.52-6-11.54-16.17-4.57-26.42zm193.72-169.83c-3.7-13 2.82-21.74 16.22-21.74h22.18c11.63 0 18.6 5.65 20.89 17.11l38 138.14c2.82 12.53 4.63 25.12 4.63 25.12h.93s1.89-12.59 5.11-25.12l39.88-138.14c2.31-11.12 9.71-16.68 21.36-16.68h17.56c11.55 0 18.49 5.64 21.31 16.68l39.54 138.15a173.74 173.74 0 0 1 5.28 25h.84a255.55 255.55 0 0 1 5.11-25.11l37.62-138.15c2.82-11.54 9.68-17.1 21.25-17.1h21.37c13.85 0 19.75 8.75 16.17 21.73l-60.68 198.45c-3.27 11.29-10.67 16.26-21.76 16.26h-31.21c-11.57 0-19-5.64-21.82-16.76l-35.67-118.17a206 206 0 0 1-5.64-25.4h-.91s-2.31 13-6 25.4l-35.64 118.36c-2.82 11.29-9.79 16.77-21.42 16.77h-32c-11.14 0-18.06-5.08-21.27-16.26l-61.23-198.43zm389.76-2.32c0-12.59 6.58-19.5 19-19.5h20.46c12.48 0 18.91 6.91 18.91 19.5V448c0 13-6.43 19.5-18.91 19.5h-20.46c-12.47 0-19-6.46-19-19.5zm97.37 172.15l5.63-8.31c6.89-9.74 14.87-10.64 26.42-4.63 11.09 6 28.72 16.17 52.83 16.17 20.37 0 32.9-9.26 32.9-24.1 0-38.47-117.26-24.08-117.26-105.21 0-46.34 40.78-71 90.31-71a130.84 130.84 0 0 1 65.8 17.2c10.7 5.64 12.11 15.29 7 25.93l-4.63 8.47c-5.65 11.15-14.31 12.53-25.94 7.42-10.24-4.63-25.4-11.6-44.95-11.6-20.41 0-32 8.47-32 23.17 0 38.95 117.26 23.65 117.26 104.42 0 41.69-35.22 72.76-89.94 72.76a137.8 137.8 0 0 1-78.79-24.13c-10.64-6-11.63-16.17-4.69-26.42zm208.27-264.88c0-12.54 7-19.45 19.5-19.45h19.76c13 0 19.5 6.91 19.5 19.45v95.57a130.62 130.62 0 0 1-1.44 19.76h1c11.62-22.58 41.29-47.72 82-47.72 52.4 0 82.55 27.34 82.55 89.91v132.64c0 13-7 19.5-19.48 19.5h-20c-13 0-19.45-6.46-19.45-19.5V327.41c0-28.67-7.39-48.26-37.08-48.26-41.26 0-68.15 33.47-68.15 78.43v90.31c0 13-6.47 19.5-19.5 19.5h-19.76c-12.53 0-19.5-6.46-19.5-19.5V157.72zm285.97 37.36a8.06 8.06 0 0 0 8.51-7.55 8.43 8.43 0 0 0 0-1.42 7.78 7.78 0 0 0-7-8.47 8.42 8.42 0 0 0-1.42 0h-8.47v17.55zm-18.37-20.49a4.09 4.09 0 0 1 3.47-4.63 4.43 4.43 0 0 1 1.15 0h15.87c10 0 16.56 6.32 16.56 16.15a14.11 14.11 0 0 1-9.68 14.11v.25a15.89 15.89 0 0 1 1.84 2.82l7.3 14.11c1.7 3.19.71 5.28-2.54 5.28h-1.72a5.41 5.41 0 0 1-5.44-3.33l-8.13-16.88h-8.72v16a3.9 3.9 0 0 1-3.25 4.45 3.69 3.69 0 0 1-1.1 0h-1.27a3.89 3.89 0 0 1-4.36-3.36 4.05 4.05 0 0 1 0-1.1v-43.87zm17.1 63.78c22.77 0 40.19-18.29 40.19-41.71s-17.42-41.71-40.19-41.71c-22.32 0-39.51 18.23-39.51 41.71s17.27 41.71 39.51 41.71zm0-93a51.28 51.28 0 1 1-49.88 52.65v-1.37a50.58 50.58 0 0 1 49.81-51.28z"/></svg>