<svg xmlns="http://www.w3.org/2000/svg" id="Layer_1" data-name="Layer 1" viewBox="0 0 2000 647.28"><defs><style>.cls-1{fill:#a6a6a6}</style></defs><g id="g4158"><path id="polygon9" d="M866.66 637.94H704.65L805.99 11.36h162L866.66 637.94z" class="cls-1"/><path id="path11" d="M1454 703c-32-12.68-82.64-26.68-145.31-26.68-160 0-272.67 85.32-273.36 207.3-1.32 90 80.67 140 142 170 62.68 30.67 84 50.68 84 78-.63 42-50.65 61.33-97.29 61.33-64.68 0-99.34-10-152-33.33l-21.34-10-22.7 140.67c38 17.31 108 32.67 180.69 33.35 170 0 280.67-84 282-214 .65-71.32-42.65-126-136-170.64-56.67-28.67-91.37-48-91.37-77.33.66-26.67 29.35-54 93.32-54 52.67-1.34 91.37 11.32 120.68 24l14.66 6.65L1454 703z" class="cls-1" transform="translate(0 -676.36)"/><path id="path13" d="M1669.31 1092.32C1682.65 1056.33 1734 917 1734 917c-.67 1.34 13.32-36.66 21.32-60l11.32 54s30.68 150 37.34 181.3zm200-404.6H1744c-38.65 0-68 11.32-84.68 52l-240.65 574.58h170s28-77.33 34-94h208c4.65 22 19.33 94 19.33 94h150l-130.7-626.58z" class="cls-1" transform="translate(0 -676.36)"/><path id="path15" d="M569.33 687.72L410.67 1115l-17.34-86.66c-29.33-100-121.33-208.63-224-262.65l145.33 548H486l254.65-625.97z" class="cls-1" transform="translate(0 -676.36)"/><path id="path17" fill="gray" d="M263.33 687.72H2.67L0 700.38c203.33 52 338 177.33 393.33 328l-56.67-288c-9.33-40-38-51.35-73.33-52.67z" transform="translate(0 -676.36)"/></g></svg>